<?xml version="1.0" encoding="utf-8"?>
<!-- Svg Vector Icons : http://www.onlinewebfonts.com/icon -->
<!DOCTYPE svg PUBLIC "-//W3C//DTD SVG 1.1//EN" "http://www.w3.org/Graphics/SVG/1.1/DTD/svg11.dtd">
<svg version="1.1" xmlns="http://www.w3.org/2000/svg" xmlns:xlink="http://www.w3.org/1999/xlink" x="0px" y="0px" viewBox="0 0 1000 1000" enable-background="new 0 0 1000 1000" xml:space="preserve">
<metadata> Svg Vector Icons : http://www.onlinewebfonts.com/icon </metadata>
<g><path d="M500,10C229.4,10,10,229.4,10,500c0,270.6,219.4,490,490,490c270.6,0,490-219.4,490-490C990,229.4,770.6,10,500,10L500,10z M500,952.3C250.2,952.3,47.7,749.8,47.7,500C47.7,250.2,250.2,47.7,500,47.7c249.8,0,452.3,202.5,452.3,452.3C952.3,749.8,749.8,952.3,500,952.3L500,952.3z M706.3,689.3c0,12.8-23.2,23.2-23.2,23.2h-371c0,0-23.2-10.4-23.2-23.2c0-95.4,64.2-175.8,151.6-200.6c-35.1-19.9-58.9-57.6-58.9-100.9c0-64,51.9-115.9,116-115.9c64,0,115.9,51.9,115.9,115.9c0,43.3-23.8,80.9-58.9,100.9C642.2,513.5,706.3,593.8,706.3,689.3L706.3,689.3z"/></g>
</svg>