<?xml version="1.0" encoding="utf-8"?>
<!-- Svg Vector Icons : http://www.onlinewebfonts.com/icon -->
<!DOCTYPE svg PUBLIC "-//W3C//DTD SVG 1.1//EN" "http://www.w3.org/Graphics/SVG/1.1/DTD/svg11.dtd">
<svg version="1.1" xmlns="http://www.w3.org/2000/svg" xmlns:xlink="http://www.w3.org/1999/xlink" x="0px" y="0px" viewBox="0 0 1000 1000" enable-background="new 0 0 1000 1000" xml:space="preserve">
<metadata> Svg Vector Icons : http://www.onlinewebfonts.com/icon </metadata>
<g><path d="M385.1,351.1c13.8,0,26.5,0,38.4-0.1c11.2,1,20.2-1.6,26.3-8.9c4.9-6.9,8.2-16.7,10.6-28.4c-9.7-10.3-17.5-23.3-22-38c-5.5-2.8-9.6-7.6-12.4-14.3c-3-7.2-4.4-16.7-4.2-27.9l0.1-3.5l3-2c0.5-0.4,1.1-0.7,1.7-1.1c-6.5-47.5-1-69.5,19.6-86.4c32.1-26.3,93.2-26.5,125.7-2.7c22.1,16.2,30,45,24.2,88.1c1.1,0.6,2.2,1.3,3.4,2l3,2l0,3.5c0.1,11-1.1,20.3-4,27.5c-2.7,6.6-6.6,11.5-12,14.4c-4.2,13.7-11.2,26-20,36c2.8,15.1,7.2,27.3,14.2,34.6c6.2,3.1,14.3,3.9,24,3.2c11.1-0.1,22.9-0.1,35.6-0.1c32.8,31,53.8,104.1,48.6,151.8c-53.8,37.5-313.1,39.7-353.8,0C335.7,458.9,343.5,387.4,385.1,351.1L385.1,351.1z M403.2,810.6L368,670.3l150.8,1.8l-35,41.9c42.8,27.3,100.4,19.2,133.8-20.8c7.1-8.6,12.6-18,16.5-27.8l21.3,7.7c-2.9,27-13.6,53.5-32.3,75.9c-47.6,57-130.3,67.5-190.3,26.1L403.2,810.6L403.2,810.6z M259.7,161.8L263,208c-72,11.8-124.3,76.6-119.1,150.7c2.1,29.1,12.8,55.6,29.4,77.1l20.7-9.2c-4-9.8-6.6-20.4-7.4-31.5c-3.7-52,32.2-97.7,82-107.7l3.8,54.4l109.9-103.3L259.7,161.8L259.7,161.8z M919.4,299.9l-46.2,3.2c-11.5-72-76.3-124.5-150.5-119.4c-29.1,2-55.6,12.6-77.1,29.2l9.1,20.7c9.8-4,20.4-6.5,31.5-7.3c52-3.6,97.7,32.3,107.5,82.2l-54.4,3.8l103.1,110.1L919.4,299.9L919.4,299.9z M239.2,657.5c-7.6,16.4-19.4,31.2-36.1,42.5c4.7,16.6,7.4,22.8,11.6,32.3c10,0.3,78.3,4.1,83.1,15.5c24.4,29.6,25.4,80.4,20.9,106.7c-72.1,33.6-234.5,33.6-306.6,0c-4.5-26.4-3.4-77.1,20.8-106.7c4.8-11.3,73.1-15.2,83.1-15.5c3.5-10.9,6.4-21.2,8.5-32.4C108.7,689,97.7,674.1,91,657.4c-7.7-0.9-25.7-0.2-33.2-1.1c-8.9-57.4,3.9-141.7,27.4-161c34.7-28.4,119.2-29.6,154.3-3.9c25.5,18.6,42.2,110.4,33.4,162.4C268.9,656.5,244,655,239.2,657.5L239.2,657.5z M908.4,646.1c4.8-2.5,29.7-1,33.7-3.7c8.9-52-7.8-143.7-33.4-162.4c-35.1-25.8-119.6-24.5-154.3,3.9c-23.5,19.3-36.4,103.6-27.4,161c7.5,0.9,25.5,0.2,33.2,1.1c6.7,16.6,17.7,31.5,33.5,42.4c-2.1,11.3-5,21.5-8.5,32.5c-9.9,0.3-78.3,4.1-83,15.5c-24.3,29.6-25.4,80.4-20.9,106.7c72.1,33.6,234.5,33.6,306.6,0c4.5-26.3,3.4-77.1-20.9-106.7c-4.7-11.3-73.1-15.2-83.1-15.5c-4.2-9.5-7-15.7-11.6-32.3C889,677.4,900.9,662.5,908.4,646.1z"/></g>
</svg>