<svg class="svg-icon" style="width: 1em; height: 1em;vertical-align: middle;fill: currentColor;overflow: hidden;" viewBox="0 0 1024 1024" version="1.1" xmlns="http://www.w3.org/2000/svg"><path d="M787.9 395.4c0-35.1-6.6-68.6-18.5-99.5-12.4 110.6-40 191.7-88.5 277.1-42.2 87.3-158.5 227.3-200.9 283.5 8.8 11.7 17.2 22.7 24.9 32.6 95.2-117.4 283-373.7 283-493.7z" fill="#F5B200" /><path d="M510.7 63.9c-15.2 0-30.4 1-45.3 3.1-14.9 2-25.3 15.8-23.3 30.7 2 14.9 15.8 25.4 30.7 23.3 12.5-1.7 25.2-2.6 37.9-2.6 117.8 0 218.5 73.9 258.6 177.6 11.9 30.9 18.5 64.4 18.5 99.5 0 119.9-187.8 376.3-283 493.7-7.7-9.9-16.1-20.9-24.9-32.6-95.6-127.3-246.3-351.2-246.3-461.1 0-80.6 35-157 96-209.8 11.4-9.8 12.6-27 2.8-38.4-9.8-11.4-27-12.6-38.4-2.8-73 63.1-114.9 154.6-114.9 251 0 175.7 291.6 538.8 304 554.2 5.1 6.3 12.8 10 20.9 10.1h0.3c8 0 15.7-3.5 20.8-9.7 12.9-15.4 317.1-378.6 317.1-554.6 0.1-182.9-148.6-331.6-331.5-331.6z" fill="#333333" /><path d="M378.2 148.6c4 0 8-0.9 11.9-2.7 3.6-1.7 7.2-3.4 10.9-5 13.8-6 20.2-22 14.2-35.8-6-13.8-22-20.2-35.8-14.2-4.4 1.9-8.8 3.9-13.1 6-13.5 6.6-19.2 22.8-12.6 36.4 4.7 9.7 14.4 15.3 24.5 15.3z" fill="#333333" /><path d="M471.8 508.9c12.1 4.8 25.2 7.6 39 7.6 58.1 0 105.3-47.2 105.3-105.3 0-20-5.7-38.7-15.5-54.7-3.3 26-18.2 59.6-43.5 90.8-26.7 32.9-59.7 54.2-85.3 61.6z" fill="#FFD524" /><path d="M510.7 570.9c88.1 0 159.8-71.7 159.8-159.8s-71.7-159.8-159.8-159.8S351 323 351 411.1s71.6 159.8 159.7 159.8z m0-265.1c38 0 71.3 20.3 89.9 50.7 9.7 16 15.5 34.6 15.5 54.7 0 58.1-47.2 105.3-105.3 105.3-13.8 0-26.9-2.7-39-7.6-38.8-15.5-66.4-53.5-66.4-97.8 0-58 47.3-105.3 105.3-105.3z" fill="#333333" /></svg>